<svg xmlns="http://www.w3.org/2000/svg" viewBox="0 0 100 100">
  <defs>
    <linearGradient id="cupGrad" x1="0%" y1="0%" x2="100%" y2="100%">
      <stop offset="0%" style="stop-color:#6F4E37;stop-opacity:1" />
      <stop offset="100%" style="stop-color:#3E2723;stop-opacity:1" />
    </linearGradient>
    <linearGradient id="bgGrad" x1="0%" y1="0%" x2="100%" y2="100%">
      <stop offset="0%" style="stop-color:#FAF7F2;stop-opacity:1" />
      <stop offset="100%" style="stop-color:#F5EDE0;stop-opacity:1" />
    </linearGradient>
  </defs>
  <!-- Background circle -->
  <circle cx="50" cy="50" r="50" fill="url(#bgGrad)" />
  <!-- Cup body -->
  <path d="M28 38 L32 72 Q32 76 36 76 L64 76 Q68 76 68 72 L72 38 Z"
        fill="url(#cupGrad)" />
  <!-- Cup rim -->
  <rect x="26" y="34" width="48" height="7" rx="3.5"
        fill="#8D6E63" />
  <!-- Handle -->
  <path d="M68 50 Q82 50 82 60 Q82 70 68 70"
        fill="none" stroke="url(#cupGrad)" stroke-width="5" stroke-linecap="round" />
  <!-- Steam lines -->
  <path d="M40 28 Q42 22 40 16" fill="none" stroke="#D2B48C" stroke-width="2.5" stroke-linecap="round"/>
  <path d="M50 26 Q52 20 50 14" fill="none" stroke="#D2B48C" stroke-width="2.5" stroke-linecap="round"/>
  <path d="M60 28 Q62 22 60 16" fill="none" stroke="#D2B48C" stroke-width="2.5" stroke-linecap="round"/>
</svg>
